solid Head2
facet normal 7.519910620127759e-15 -1.0 -4.511946372076603e-15
  outer loop
    vertex -5.290657824255341 -28.907009620855607 7.582395460291751
    vertex -8.290657824255327 -28.907009620855607 2.582395460291716
    vertex -5.290657824255341 -28.907009620855565 2.582395460291716
  endloop
endfacet
facet normal 7.519910620127759e-15 -1.0 -4.511946372076603e-15
  outer loop
    vertex -8.290657824255327 -28.907009620855607 2.582395460291716
    vertex -5.290657824255341 -28.907009620855607 7.582395460291751
    vertex -8.290657824255327 -28.907009620855607 7.582395460291751
  endloop
endfacet
facet normal 0.0 0.0 1.0
  outer loop
    vertex 5.709342175744671 -28.90700962085543 7.582395460291571
    vertex 8.709342175744645 -26.907009620855426 7.582395460291571
    vertex 5.7093421757446565 -26.907009620855426 7.582395460291571
  endloop
endfacet
facet normal 0.0 0.0 1.0
  outer loop
    vertex 8.709342175744645 -26.907009620855426 7.582395460291571
    vertex 5.709342175744671 -28.90700962085543 7.582395460291571
    vertex 8.70934217574466 -28.90700962085543 7.582395460291571
  endloop
endfacet
facet normal 0.0 0.0 1.0
  outer loop
    vertex -8.290657824255327 -28.907009620855607 7.582395460291751
    vertex -5.290657824255355 -26.907009620855607 7.582395460291751
    vertex -8.29065782425534 -26.907009620855607 7.582395460291751
  endloop
endfacet
facet normal 0.0 0.0 1.0
  outer loop
    vertex -5.290657824255355 -26.907009620855607 7.582395460291751
    vertex -8.290657824255327 -28.907009620855607 7.582395460291751
    vertex -5.290657824255341 -28.907009620855607 7.582395460291751
  endloop
endfacet
facet normal 1.0 7.049916206369736e-15 5.570399526070461e-29
  outer loop
    vertex 8.70934217574466 -28.907009620855387 2.582395460291535
    vertex 8.709342175744645 -26.907009620855426 7.582395460291571
    vertex 8.70934217574466 -28.90700962085543 7.582395460291571
  endloop
endfacet
facet normal 1.0 7.049916206369736e-15 5.570399526070461e-29
  outer loop
    vertex 8.709342175744645 -26.907009620855426 7.582395460291571
    vertex 8.70934217574466 -28.907009620855387 2.582395460291535
    vertex 8.709342175744645 -26.907009620855387 2.582395460291535
  endloop
endfacet
facet normal -6.579921792611786e-15 1.0 3.9479530755670285e-15
  outer loop
    vertex 5.7093421757446565 -26.907009620855426 7.582395460291571
    vertex 8.709342175744645 -26.907009620855387 2.582395460291535
    vertex 5.7093421757446565 -26.907009620855426 2.582395460291535
  endloop
endfacet
facet normal -6.579921792611786e-15 1.0 3.9479530755670285e-15
  outer loop
    vertex 8.709342175744645 -26.907009620855387 2.582395460291535
    vertex 5.7093421757446565 -26.907009620855426 7.582395460291571
    vertex 8.709342175744645 -26.907009620855426 7.582395460291571
  endloop
endfacet
facet normal -1.0 -6.344924585732763e-15 0.0
  outer loop
    vertex 5.7093421757446565 -26.907009620855426 7.582395460291571
    vertex 5.709342175744671 -28.90700962085543 2.582395460291535
    vertex 5.709342175744671 -28.90700962085543 7.582395460291571
  endloop
endfacet
facet normal -1.0 -6.344924585732763e-15 0.0
  outer loop
    vertex 5.709342175744671 -28.90700962085543 2.582395460291535
    vertex 5.7093421757446565 -26.907009620855426 7.582395460291571
    vertex 5.7093421757446565 -26.907009620855426 2.582395460291535
  endloop
endfacet
facet normal 1.0 7.754907827006711e-15 7.004027846023723e-29
  outer loop
    vertex -5.290657824255341 -28.907009620855565 2.582395460291716
    vertex -5.290657824255355 -26.907009620855607 7.582395460291751
    vertex -5.290657824255341 -28.907009620855607 7.582395460291751
  endloop
endfacet
facet normal 1.0 7.754907827006711e-15 7.004027846023723e-29
  outer loop
    vertex -5.290657824255355 -26.907009620855607 7.582395460291751
    vertex -5.290657824255341 -28.907009620855565 2.582395460291716
    vertex -5.290657824255355 -26.90700962085556 2.582395460291716
  endloop
endfacet
facet normal -1.0 -7.049916206369737e-15 0.0
  outer loop
    vertex -8.29065782425534 -26.907009620855607 7.582395460291751
    vertex -8.290657824255327 -28.907009620855607 2.582395460291716
    vertex -8.290657824255327 -28.907009620855607 7.582395460291751
  endloop
endfacet
facet normal -1.0 -7.049916206369737e-15 0.0
  outer loop
    vertex -8.290657824255327 -28.907009620855607 2.582395460291716
    vertex -8.29065782425534 -26.907009620855607 7.582395460291751
    vertex -8.29065782425534 -26.907009620855607 2.582395460291716
  endloop
endfacet
facet normal 0.0 0.0 -1.0
  outer loop
    vertex 8.709342175744645 -26.907009620855387 2.582395460291535
    vertex 5.709342175744671 -28.90700962085543 2.582395460291535
    vertex 5.7093421757446565 -26.907009620855426 2.582395460291535
  endloop
endfacet
facet normal 0.0 0.0 -1.0
  outer loop
    vertex 5.709342175744671 -28.90700962085543 2.582395460291535
    vertex 8.709342175744645 -26.907009620855387 2.582395460291535
    vertex 8.70934217574466 -28.907009620855387 2.582395460291535
  endloop
endfacet
facet normal 0.0 0.0 -1.0
  outer loop
    vertex -5.290657824255355 -26.90700962085556 2.582395460291716
    vertex -8.290657824255327 -28.907009620855607 2.582395460291716
    vertex -8.29065782425534 -26.907009620855607 2.582395460291716
  endloop
endfacet
facet normal 0.0 0.0 -1.0
  outer loop
    vertex -8.290657824255327 -28.907009620855607 2.582395460291716
    vertex -5.290657824255355 -26.90700962085556 2.582395460291716
    vertex -5.290657824255341 -28.907009620855565 2.582395460291716
  endloop
endfacet
facet normal 6.5799217926117854e-15 -1.0 -3.9479530755670285e-15
  outer loop
    vertex 8.70934217574466 -28.90700962085543 7.582395460291571
    vertex 5.709342175744671 -28.90700962085543 2.582395460291535
    vertex 8.70934217574466 -28.907009620855387 2.582395460291535
  endloop
endfacet
facet normal 6.5799217926117854e-15 -1.0 -3.9479530755670285e-15
  outer loop
    vertex 5.709342175744671 -28.90700962085543 2.582395460291535
    vertex 8.70934217574466 -28.90700962085543 7.582395460291571
    vertex 5.709342175744671 -28.90700962085543 7.582395460291571
  endloop
endfacet
facet normal -7.519910620127763e-15 1.0 4.511946372076603e-15
  outer loop
    vertex -8.29065782425534 -26.907009620855607 7.582395460291751
    vertex -5.290657824255355 -26.90700962085556 2.582395460291716
    vertex -8.29065782425534 -26.907009620855607 2.582395460291716
  endloop
endfacet
facet normal -7.519910620127763e-15 1.0 4.511946372076603e-15
  outer loop
    vertex -5.290657824255355 -26.90700962085556 2.582395460291716
    vertex -8.29065782425534 -26.907009620855607 7.582395460291751
    vertex -5.290657824255355 -26.907009620855607 7.582395460291751
  endloop
endfacet
endsolid Head2
